<?xml version="1.0" standalone="no"?>
<!DOCTYPE svg PUBLIC "-//W3C//DTD SVG 20010904//EN"
 "http://www.w3.org/TR/2001/REC-SVG-20010904/DTD/svg10.dtd">
<svg version="1.0" xmlns="http://www.w3.org/2000/svg"
 width="700.000000pt" height="700.000000pt" viewBox="0 0 700.000000 700.000000"
 preserveAspectRatio="xMidYMid meet">
<metadata>
Created by potrace 1.14, written by Peter Selinger 2001-2017
</metadata>
<g transform="translate(0.000000,700.000000) scale(0.100000,-0.100000)"
fill="#000000" stroke="none">
<path d="M0 3500 l0 -3500 3500 0 3500 0 0 3500 0 3500 -3500 0 -3500 0 0
-3500z m2083 2207 c113 -51 173 -132 200 -268 47 -227 58 -606 83 -2861 l7
-596 121 -6 c66 -3 513 -15 991 -26 479 -11 980 -25 1115 -30 667 -27 842 -65
903 -199 19 -40 22 -65 22 -191 0 -167 -14 -219 -70 -269 -134 -117 -456 -141
-1935 -141 -1339 1 -1635 16 -1775 94 -22 12 -86 60 -142 106 l-103 85 0 95
c0 52 -7 667 -15 1365 -26 2244 -20 2487 57 2642 43 87 187 195 296 223 64 16
184 5 245 -23z"/>
</g>
</svg>
